<svg width="22" height="22" viewBox="0 0 22 22" fill="none" xmlns="http://www.w3.org/2000/svg">
<path d="M18.48 6.82009L15.62 5.35342V3.15342C15.62 2.61564 15.4244 2.16342 15.0333 1.79675C14.6422 1.43009 14.1778 1.24675 13.64 1.24675H5.86667C5.32889 1.24675 4.86444 1.43009 4.47333 1.79675C4.08222 2.16342 3.88667 2.61564 3.88667 3.15342V5.35342L1.02667 6.82009C0.733333 6.96675 0.488889 7.19897 0.293333 7.51675C0.0977778 7.83453 0 8.18897 0 8.58008V20.0934C0 20.289 0.0611111 20.4479 0.183333 20.5701C0.305556 20.6923 0.464444 20.7534 0.66 20.7534H18.8467C19.0422 20.7534 19.2011 20.6923 19.3233 20.5701C19.4456 20.4479 19.5067 20.289 19.5067 20.0934V8.58008C19.5067 8.18897 19.4089 7.83453 19.2133 7.51675C19.0178 7.19897 18.7733 6.96675 18.48 6.82009ZM3.88667 19.5068H1.24667V8.58008C1.24667 8.28675 1.36889 8.06675 1.61333 7.92008L3.88667 6.82009V19.5068ZM11.7333 19.5068H7.77333V16.8668H11.7333V19.5068ZM14.3 19.5068H12.98V16.2068C12.98 16.0112 12.9189 15.8523 12.7967 15.7301C12.6744 15.6079 12.54 15.5468 12.3933 15.5468H7.11333C6.96667 15.5468 6.82 15.6079 6.67333 15.7301C6.52667 15.8523 6.45333 16.0112 6.45333 16.2068V19.4334H5.20667V3.15342C5.20667 3.00675 5.26778 2.86008 5.39 2.71342C5.51222 2.56675 5.67111 2.49342 5.86667 2.49342H13.64C13.8356 2.49342 13.9944 2.56675 14.1167 2.71342C14.2389 2.86008 14.3 3.00675 14.3 3.15342V19.5068ZM18.26 19.5068H15.62V6.82009L17.8933 7.92008C18.1378 8.06675 18.26 8.28675 18.26 8.58008V19.5068ZM10.4133 11.6601H13.0533V12.9801H10.4133V11.6601ZM6.52667 11.6601H9.09333V12.9801H6.52667V11.6601ZM10.4133 9.02009H13.0533V10.3401H10.4133V9.02009ZM6.52667 9.02009H9.09333V10.3401H6.52667V9.02009ZM10.4133 6.45342H13.0533V7.70008H10.4133V6.45342ZM6.52667 6.45342H9.09333V7.70008H6.52667V6.45342ZM10.4133 3.81342H13.0533V5.13342H10.4133V3.81342ZM6.52667 3.81342H9.09333V5.13342H6.52667V3.81342Z" fill="#181A20"/>
</svg>
