<svg width="22" height="22" viewBox="0 0 22 22" fill="none" xmlns="http://www.w3.org/2000/svg">
<path d="M17.8933 5.79342L10.0467 1.32009C9.85111 1.17342 9.65555 1.17342 9.46 1.32009L1.61333 5.79342C1.12444 6.08675 0.733333 6.47786 0.44 6.96675C0.146667 7.45564 0 7.99342 0 8.58008V17.5268C0 18.4068 0.317778 19.1645 0.953333 19.8001C1.58889 20.4356 2.34667 20.7534 3.22667 20.7534H16.28C17.16 20.7534 17.9178 20.4356 18.5533 19.8001C19.1889 19.1645 19.5067 18.4068 19.5067 17.5268V8.58008C19.5067 7.99342 19.36 7.45564 19.0667 6.96675C18.7733 6.47786 18.3822 6.08675 17.8933 5.79342ZM10.4133 14.2268C10.4133 13.5423 10.67 12.9434 11.1833 12.4301C11.6967 11.9168 12.2956 11.6601 12.98 11.6601C13.1756 11.6601 13.3344 11.7212 13.4567 11.8434C13.5789 11.9656 13.64 12.1245 13.64 12.3201C13.64 13.0534 13.3833 13.6645 12.87 14.1534C12.3567 14.6423 11.7578 14.8868 11.0733 14.8868H10.4133V14.2268ZM9.09333 14.8868H8.43333C7.74889 14.8868 7.15 14.6423 6.63667 14.1534C6.12333 13.6645 5.86667 13.0534 5.86667 12.3201C5.86667 12.1245 5.92778 11.9656 6.05 11.8434C6.17222 11.7212 6.33111 11.6601 6.52667 11.6601C7.21111 11.6601 7.81 11.9168 8.32333 12.4301C8.83667 12.9434 9.09333 13.5423 9.09333 14.2268V14.8868ZM18.26 17.5268C18.26 18.0645 18.0644 18.529 17.6733 18.9201C17.2822 19.3112 16.8178 19.5068 16.28 19.5068H10.4133V16.2068H11.0733C12.1489 16.2068 13.0656 15.8279 13.8233 15.0701C14.5811 14.3123 14.96 13.3956 14.96 12.3201C14.96 11.7823 14.7644 11.3179 14.3733 10.9268C13.9822 10.5356 13.5178 10.3401 12.98 10.3401C11.9044 10.3401 11 10.7312 10.2667 11.5134C10.0711 11.709 9.9 11.9045 9.75333 12.1001C9.36222 11.5623 8.88556 11.1345 8.32333 10.8168C7.76111 10.499 7.13778 10.3401 6.45333 10.3401C5.91556 10.3401 5.46333 10.5356 5.09667 10.9268C4.73 11.3179 4.54667 11.7823 4.54667 12.3201C4.54667 13.3956 4.92556 14.3123 5.68333 15.0701C6.44111 15.8279 7.35778 16.2068 8.43333 16.2068H9.09333V19.5068H3.22667C2.68889 19.5068 2.22444 19.3112 1.83333 18.9201C1.44222 18.529 1.24667 18.0645 1.24667 17.5268V8.58008C1.24667 8.23786 1.34444 7.92008 1.54 7.62675C1.73556 7.33342 1.98 7.08897 2.27333 6.89342L9.75333 2.64009L17.2333 6.89342C17.5267 7.08897 17.7711 7.33342 17.9667 7.62675C18.1622 7.92008 18.26 8.23786 18.26 8.58008V17.5268Z" fill="#181A20"/>
</svg>
